<?xml version="1.0" encoding="utf-8"?>
<!-- Generator: Adobe Illustrator 21.1.0, SVG Export Plug-In . SVG Version: 6.00 Build 0)  -->
<svg version="1.1" xmlns="http://www.w3.org/2000/svg" xmlns:xlink="http://www.w3.org/1999/xlink" x="0px" y="0px"
	 viewBox="0 0 92 92" style="enable-background:new 0 0 92 92;" xml:space="preserve">
<style type="text/css">
	.st0{fill:#8E99A8;}
	.st1{fill:#24A9E6;}
	.st2{fill:#FFFFFF;}
	.st3{fill:#1CB1E6;}
	.st4{fill:#2A5B83;}
	.st5{fill:#187FB8;}
	.st6{fill:#1A70F9;}
	.st7{fill:#E64C87;}
	.st8{fill:#43619C;}
	.st9{fill:#F24033;}
	.st10{fill:#F2F2F2;}
	.st11{fill:none;stroke:#F2F2F2;stroke-width:3;stroke-miterlimit:10;}
</style>
<g id="SIGNATURE">
</g>
<g id="BACKGROUND">
</g>
<g id="_x30_6-SINGLE-WHITE">
</g>
<g id="_x30_5-FULL-WHITE">
</g>
<g id="_x30_4-FULL-COLOR">
</g>
<g id="_x30_3-SINGLE-COLOR">
</g>
<g id="_x30_2-CIRCLE-COLOR">
</g>
<g id="_x30_1-SINGLE-GREY">
	<path class="st11" d="M6.2,75.8c0-19.8,0-39.7,0-59.5c0.1-0.2,0.2-0.4,0.2-0.7c0.5-4.4,3.8-8.1,8.2-9.1c0.6-0.1,1.2-0.2,1.7-0.4
		c19.8,0,39.7,0,59.5,0c0.5,0.1,0.9,0.2,1.4,0.3c5.2,1.1,8.7,5.3,8.7,10.7c0,19.3,0,38.5,0,57.8c0,0.7-0.1,1.5-0.2,2.2
		c-1.1,5.2-5.3,8.7-10.7,8.7c-5.3,0-10.5,0-15.8,0c-0.7,0-0.9-0.2-0.9-0.9c0-8.9,0-17.8,0.1-26.6c0-0.3,0-0.5,0.1-0.8
		c0.2,0,0.2-0.1,0.3-0.1c3.1,0,6.1,0,9.2,0c1.3,0,1.9-0.5,2.1-1.7c0.4-2.7,0.6-5.5,1-8.2c0.3-1.9-0.5-2.8-2.4-2.8
		c-3.1,0-6.3,0-9.4,0c-0.6,0-0.8-0.2-0.8-0.8c0-2.6,0-5.2,0.1-7.9c0.1-2.8,1.4-4.3,4.2-4.6c1.9-0.2,3.9-0.1,5.8-0.2
		c1.5,0,2.3-0.7,2.3-2.2c0-2.3,0-4.6,0-6.9c0-1.5-0.8-2.3-2.3-2.3c-1.3,0-2.5-0.1-3.8,0c-2.5,0.1-4.9,0.1-7.4,0.5
		c-4,0.7-7.2,2.9-9.3,6.4c-1.7,2.9-2.2,6-2.2,9.3c0,2.6,0,5.2,0,7.8c0,0.6-0.2,0.8-0.8,0.8c-1.9,0-3.8,0-5.8,0
		c-1.9,0-2.6,0.7-2.6,2.6c0,2.8,0,5.5,0.1,8.3c0,1.3,0.7,2,2,2c2.1,0,4.1,0,6.2,0c0.8,0,1,0.2,0.9,1c0,8.9,0,17.8-0.1,26.6
		c0,0.2,0,0.5-0.1,0.8c-0.2,0-0.4,0-0.5,0c-9.3,0-18.7,0-28,0c-5.3,0-9.4-3.5-10.5-8.7C6.3,76.7,6.2,76.2,6.2,75.8z"/>
</g>
</svg>
