<?xml version="1.0" encoding="utf-8"?>
<!-- Generator: Adobe Illustrator 21.1.0, SVG Export Plug-In . SVG Version: 6.00 Build 0)  -->
<svg version="1.1" xmlns="http://www.w3.org/2000/svg" xmlns:xlink="http://www.w3.org/1999/xlink" x="0px" y="0px"
	 viewBox="0 0 92 92" style="enable-background:new 0 0 92 92;" xml:space="preserve">
<style type="text/css">
	.st0{fill:#8E99A8;}
	.st1{fill:#24A9E6;}
	.st2{fill:#FFFFFF;}
	.st3{fill:#1CB1E6;}
	.st4{fill:#2A5B83;}
	.st5{fill:#187FB8;}
	.st6{fill:#1A70F9;}
	.st7{fill:#E64C87;}
	.st8{fill:#43619C;}
	.st9{fill:#F24033;}
	.st10{fill:#F2F2F2;}
	.st11{fill:none;stroke:#F2F2F2;stroke-width:3;stroke-miterlimit:10;}
</style>
<g id="SIGNATURE">
</g>
<g id="BACKGROUND">
</g>
<g id="_x30_6-SINGLE-WHITE">
</g>
<g id="_x30_5-FULL-WHITE">
</g>
<g id="_x30_4-FULL-COLOR">
</g>
<g id="_x30_3-SINGLE-COLOR">
</g>
<g id="_x30_2-CIRCLE-COLOR">
</g>
<g id="_x30_1-SINGLE-GREY">
	<path class="st11" d="M3,44.3c0.2-1.6,0.4-3.1,0.7-4.7c1-6.1,3.3-11.7,6.9-16.9C15.8,15,23,9.6,31.8,6.4c6-2.1,12.2-2.7,18.5-2.1
		c7.9,0.7,15,3.5,21.3,8.2c7.7,5.7,12.9,13.2,15.7,22.4c1.8,5.9,2.1,11.9,1.3,18c-1.7,12-7.6,21.5-17.2,28.8
		c-3.5,2.6-7.4,4.5-11.5,6c-1.9,0.6-3.2-0.3-3.2-2.3c0-3.7,0-7.4,0-11.2c0-1.9-0.1-3.7-0.9-5.4c-0.5-1-1.1-1.9-1.7-2.9
		c1.6-0.3,3.3-0.5,4.9-0.9c4.4-1.1,8.3-3.1,11-6.9c1.9-2.8,2.8-6,3.2-9.3c0.3-2.5,0.4-5.1-0.1-7.6c-0.5-2.8-1.8-5.3-3.6-7.4
		c-0.3-0.4-0.4-0.7-0.2-1.2c1.2-3.5,0.8-7-0.6-10.4c-0.1-0.2-0.4-0.4-0.7-0.4c-1.5-0.2-2.9,0.2-4.2,0.8c-2.2,1-4.3,2.2-6.4,3.3
		c-0.4,0.2-0.9,0.3-1.3,0.2c-6.7-1.7-13.4-1.7-20.1,0c-0.4,0.1-1,0-1.3-0.2c-2.7-1.7-5.6-3.1-8.7-3.9c-0.1,0-0.1,0-0.2,0
		c-2-0.4-2.4-0.2-2.9,1.8c-0.9,3.1-1.1,6.1,0,9.2c0.1,0.2,0,0.7-0.2,0.9c-3.6,4.1-4.4,9-3.9,14.2c0.3,3.1,1,6,2.4,8.8
		c1.9,3.9,5.2,6.3,9.2,7.6c2.4,0.8,4.9,1.2,7.3,1.7c0.1,0,0.3,0,0.3,0c-0.6,1.1-1.3,2.3-1.9,3.4c-0.2,0.4-0.4,0.8-0.4,1.3
		c0,0.9-0.5,1.3-1.3,1.5c-2.7,0.7-5.4,1.2-8-0.4c-1.4-0.8-2.4-2-3.2-3.4c-1.2-2.1-3-3.7-5.3-4.3c-0.9-0.3-1.9-0.2-2.8-0.1
		c-0.6,0-0.8,0.5-0.4,1c0.4,0.5,0.8,1,1.3,1.3c2.3,1.3,3.6,3.5,4.6,5.8c0.6,1.3,1.1,2.7,2.3,3.7c1.8,1.6,4,2.2,6.3,2.3
		c2,0.1,4.1,0,6.2,0c0,1.2,0,2.6,0,4.1c0,1.1,0,2.2,0,3.3c0,2-1.3,3-3.2,2.3c-6.4-2.2-11.9-5.6-16.6-10.4c-4.5-4.7-8-10-10.2-16.2
		C4.1,57.6,3.4,54,3.1,50.3c0-0.3-0.1-0.7-0.1-1C3,47.7,3,46,3,44.3z"/>
</g>
</svg>
