<?xml version="1.0" encoding="utf-8"?>
<!-- Generator: Adobe Illustrator 21.1.0, SVG Export Plug-In . SVG Version: 6.00 Build 0)  -->
<svg version="1.1" xmlns="http://www.w3.org/2000/svg" xmlns:xlink="http://www.w3.org/1999/xlink" x="0px" y="0px"
	 viewBox="0 0 92 92" style="enable-background:new 0 0 92 92;" xml:space="preserve">
<style type="text/css">
	.st0{fill:#8E99A8;}
	.st1{fill:#24A9E6;}
	.st2{fill:#FFFFFF;}
	.st3{fill:#1CB1E6;}
	.st4{fill:#2A5B83;}
	.st5{fill:#187FB8;}
	.st6{fill:#1A70F9;}
	.st7{fill:#E64C87;}
	.st8{fill:#43619C;}
	.st9{fill:#F24033;}
	.st10{fill:#F2F2F2;}
	.st11{fill:none;stroke:#F2F2F2;stroke-width:3;stroke-miterlimit:10;}
</style>
<g id="SIGNATURE">
</g>
<g id="BACKGROUND">
</g>
<g id="_x30_6-SINGLE-WHITE">
</g>
<g id="_x30_5-FULL-WHITE">
</g>
<g id="_x30_4-FULL-COLOR">
</g>
<g id="_x30_3-SINGLE-COLOR">
</g>
<g id="_x30_2-CIRCLE-COLOR">
</g>
<g id="_x30_1-SINGLE-GREY">
	<g>
		<path class="st11" d="M87.1,46c0-7.2,0-14.4,0-21.6c0-2.3-0.2-4.5-1-6.7C83.3,9.7,76.4,4.9,67.9,4.9c-14.6,0-29.1,0-43.7,0
			c-2.2,0-4.4,0.3-6.5,1c-8,2.7-12.7,9.6-12.8,18.2c0,14.5,0,29.1,0,43.6c0,2.2,0.3,4.4,1,6.5c2.7,7.9,9.6,12.8,18.1,12.8
			c14.6,0,29.2,0,43.8,0c6.5,0,11.8-2.6,15.7-7.9c2.5-3.4,3.5-7.3,3.5-11.4C87.1,60.5,87.1,53.2,87.1,46z M46,62.9
			c-9.3,0-16.9-7.6-16.8-16.9c0-9.3,7.6-16.9,16.9-16.8c9.3,0,16.9,7.6,16.8,16.9C62.8,55.3,55.3,62.9,46,62.9z M72.8,25.7
			c-3.6,0-6.6-3-6.5-6.5c0.1-3.5,3-6.4,6.5-6.4c3.6,0,6.6,3,6.5,6.5C79.3,22.9,76.3,25.7,72.8,25.7z"/>
		<path class="st11" d="M62.9,46c0,9.3-7.6,16.9-16.9,16.8c-9.3,0-16.9-7.6-16.8-16.9c0-9.3,7.6-16.9,16.9-16.8
			C55.3,29.2,62.9,36.7,62.9,46z"/>
		<path class="st11" d="M79.3,19.3c-0.1,3.5-3,6.4-6.5,6.4c-3.6,0-6.6-3-6.5-6.5c0.1-3.5,3-6.4,6.5-6.4
			C76.4,12.8,79.4,15.8,79.3,19.3z"/>
	</g>
</g>
</svg>
